<svg width="24" height="24" viewBox="0 0 24 24" fill="none" xmlns="http://www.w3.org/2000/svg">
<mask id="path-1-inside-1_1_2887" fill="white">
<path fill-rule="evenodd" clip-rule="evenodd" d="M9 1C9 0.447716 9.44772 0 10 0H14C14.5523 0 15 0.447715 15 1V19.3798H9V1ZM2 11.6279C1.44772 11.6279 1 12.0756 1 12.6279V19.3798H7V12.6279C7 12.0756 6.55228 11.6279 6 11.6279H2ZM24 21.3178H0V23.2558H24V21.3178ZM18 5.81395C17.4477 5.81395 17 6.26167 17 6.81395V19.3798H23V6.81395C23 6.26167 22.5523 5.81395 22 5.81395H18Z"/>
</mask>
<path fill-rule="evenodd" clip-rule="evenodd" d="M9 1C9 0.447716 9.44772 0 10 0H14C14.5523 0 15 0.447715 15 1V19.3798H9V1ZM2 11.6279C1.44772 11.6279 1 12.0756 1 12.6279V19.3798H7V12.6279C7 12.0756 6.55228 11.6279 6 11.6279H2ZM24 21.3178H0V23.2558H24V21.3178ZM18 5.81395C17.4477 5.81395 17 6.26167 17 6.81395V19.3798H23V6.81395C23 6.26167 22.5523 5.81395 22 5.81395H18Z" fill="#44FDFF"/>
<path d="M15 19.3798V21.3798H17V19.3798H15ZM9 19.3798H7V21.3798H9V19.3798ZM1 19.3798H-1V21.3798H1V19.3798ZM7 19.3798V21.3798H9V19.3798H7ZM0 21.3178V19.3178H-2V21.3178H0ZM24 21.3178H26V19.3178H24V21.3178ZM0 23.2558H-2V25.2558H0V23.2558ZM24 23.2558V25.2558H26V23.2558H24ZM17 19.3798H15V21.3798H17V19.3798ZM23 19.3798V21.3798H25V19.3798H23ZM10 -2C8.34315 -2 7 -0.656852 7 1H11C11 1.55228 10.5523 2 10 2V-2ZM14 -2H10V2H14V-2ZM17 1C17 -0.656855 15.6569 -2 14 -2V2C13.4477 2 13 1.55229 13 1H17ZM17 19.3798V1H13V19.3798H17ZM9 21.3798H15V17.3798H9V21.3798ZM7 1V19.3798H11V1H7ZM3 12.6279C3 13.1802 2.55229 13.6279 2 13.6279V9.62791C0.343145 9.62791 -1 10.9711 -1 12.6279H3ZM3 19.3798V12.6279H-1V19.3798H3ZM7 17.3798H1V21.3798H7V17.3798ZM5 12.6279V19.3798H9V12.6279H5ZM6 13.6279C5.44771 13.6279 5 13.1802 5 12.6279H9C9 10.9711 7.65685 9.62791 6 9.62791V13.6279ZM2 13.6279H6V9.62791H2V13.6279ZM0 23.3178H24V19.3178H0V23.3178ZM2 23.2558V21.3178H-2V23.2558H2ZM24 21.2558H0V25.2558H24V21.2558ZM22 21.3178V23.2558H26V21.3178H22ZM19 6.81395C19 7.36624 18.5523 7.81395 18 7.81395V3.81395C16.3431 3.81395 15 5.1571 15 6.81395H19ZM19 19.3798V6.81395H15V19.3798H19ZM23 17.3798H17V21.3798H23V17.3798ZM21 6.81395V19.3798H25V6.81395H21ZM22 7.81395C21.4477 7.81395 21 7.36624 21 6.81395H25C25 5.1571 23.6569 3.81395 22 3.81395V7.81395ZM18 7.81395H22V3.81395H18V7.81395Z" fill="#44FDFF" mask="url(#path-1-inside-1_1_2887)"/>
</svg>
