<svg width="24" height="24" viewBox="0 0 24 24" fill="none" xmlns="http://www.w3.org/2000/svg">
<path d="M12 15C13.6569 15 15 13.6569 15 12C15 10.3431 13.6569 9 12 9C10.3431 9 9 10.3431 9 12C9 13.6569 10.3431 15 12 15Z" stroke="#44FDFF" stroke-width="2" stroke-linecap="round" stroke-linejoin="round"/>
<path d="M12 6C13.1046 6 14 5.10457 14 4C14 2.89543 13.1046 2 12 2C10.8954 2 10 2.89543 10 4C10 5.10457 10.8954 6 12 6Z" stroke="#44FDFF" stroke-width="2" stroke-linecap="round" stroke-linejoin="round"/>
<path d="M20 14C21.1046 14 22 13.1046 22 12C22 10.8954 21.1046 10 20 10C18.8954 10 18 10.8954 18 12C18 13.1046 18.8954 14 20 14Z" stroke="#44FDFF" stroke-width="2" stroke-linecap="round" stroke-linejoin="round"/>
<path d="M4 14C5.10457 14 6 13.1046 6 12C6 10.8954 5.10457 10 4 10C2.89543 10 2 10.8954 2 12C2 13.1046 2.89543 14 4 14Z" stroke="#44FDFF" stroke-width="2" stroke-linecap="round" stroke-linejoin="round"/>
<path d="M12 22C13.1046 22 14 21.1046 14 20C14 18.8954 13.1046 18 12 18C10.8954 18 10 18.8954 10 20C10 21.1046 10.8954 22 12 22Z" stroke="#44FDFF" stroke-width="2" stroke-linecap="round" stroke-linejoin="round"/>
<path d="M12 6V9" stroke="#44FDFF" stroke-width="2" stroke-linecap="round" stroke-linejoin="round"/>
<path d="M15 12H18" stroke="#44FDFF" stroke-width="2" stroke-linecap="round" stroke-linejoin="round"/>
<path d="M12 15V18" stroke="#44FDFF" stroke-width="2" stroke-linecap="round" stroke-linejoin="round"/>
<path d="M9 12H6" stroke="#44FDFF" stroke-width="2" stroke-linecap="round" stroke-linejoin="round"/>
</svg>
