<svg width="16" height="16" viewBox="0 0 16 16" fill="none" xmlns="http://www.w3.org/2000/svg">
<path fill-rule="evenodd" clip-rule="evenodd" d="M1.71429 8C1.71429 4.52849 4.52849 1.71429 8 1.71429C10.001 1.71429 11.7846 2.6491 12.9363 4.10807L11.8327 5.21182C11.4727 5.57181 11.7277 6.18731 12.2367 6.18731H15.4286C15.7441 6.18731 16 5.93147 16 5.61589V2.424C16 1.91491 15.3845 1.65997 15.0245 2.01994L14.155 2.88947C12.6882 1.12492 10.4759 0 8 0C3.58173 0 0 3.58173 0 8C0 12.4183 3.58173 16 8 16C11.784 16 14.9525 13.3737 15.7859 9.84541C15.8947 9.3847 15.6095 8.92299 15.1488 8.81417C14.6881 8.70534 14.2264 8.99059 14.1175 9.4513C13.4627 12.2234 10.9711 14.2857 8 14.2857C4.52849 14.2857 1.71429 11.4715 1.71429 8Z" fill="#44FDFF"/>
</svg>
