<svg width="22" height="22" viewBox="0 0 22 22" fill="none" xmlns="http://www.w3.org/2000/svg">
<path fill-rule="evenodd" clip-rule="evenodd" d="M8.86691 4.25622C5.96814 4.25622 3.61822 6.63869 3.61822 9.57761C3.61822 12.5165 5.96814 14.899 8.86691 14.899C10.3357 14.899 11.6624 14.2885 12.616 13.3018C13.5446 12.3411 14.1156 11.0278 14.1156 9.57761C14.1156 6.63869 11.7657 4.25622 8.86691 4.25622ZM1.86865 9.57761C1.86865 5.65905 5.00188 2.48242 8.86691 2.48242C12.7319 2.48242 15.8652 5.65905 15.8652 9.57761C15.8652 11.196 15.3299 12.6889 14.4303 13.8825L19.9873 19.5978L18.7413 20.843L13.2031 15.147C12.0112 16.1019 10.5043 16.6728 8.86691 16.6728C5.00188 16.6728 1.86865 13.4962 1.86865 9.57761Z" fill="white" fill-opacity="0.5"/>
</svg>
