<svg width="30" height="29" viewBox="0 0 30 29" fill="none" xmlns="http://www.w3.org/2000/svg">
<path fill-rule="evenodd" clip-rule="evenodd" d="M11.6545 4.22787C12.0511 3.84354 12.0511 3.22042 11.6545 2.8361C11.2579 2.45177 10.6148 2.45177 10.2182 2.8361L6.57277 6.36848C6.3823 6.55304 6.2753 6.80336 6.2753 7.06437C6.2753 7.32538 6.3823 7.57569 6.57277 7.76025L10.2182 11.2926C10.6148 11.677 11.2579 11.677 11.6545 11.2926C12.0511 10.9083 12.0511 10.2852 11.6545 9.90086L9.75923 8.06436H21.518C23.1749 8.06436 24.518 9.40751 24.518 11.0644V14.1291C24.518 14.6814 24.9657 15.1291 25.518 15.1291C26.0703 15.1291 26.518 14.6814 26.518 14.1291V11.0644C26.518 8.30294 24.2794 6.06436 21.518 6.06436H9.75923L11.6545 4.22787ZM17.509 24.0304C17.1124 24.4147 17.1124 25.0378 17.509 25.4222C17.9057 25.8065 18.5487 25.8065 18.9453 25.4222L22.5908 21.8898C22.7812 21.7052 22.8882 21.4549 22.8882 21.1939C22.8882 20.9329 22.7812 20.6826 22.5908 20.498L18.9453 16.9656C18.5487 16.5813 17.9057 16.5813 17.509 16.9656C17.1124 17.35 17.1124 17.9731 17.509 18.3574L19.4043 20.1939L7.64551 20.1939C5.98865 20.1939 4.64551 18.8507 4.64551 17.1939L4.64551 14.1291C4.64551 13.5768 4.19779 13.1291 3.64551 13.1291C3.09322 13.1291 2.64551 13.5768 2.64551 14.1291L2.64551 17.1939C2.64551 19.9553 4.88408 22.1939 7.64551 22.1939L19.4043 22.1939L17.509 24.0304Z" fill="#44FDFF"/>
</svg>
