<svg width="24" height="24" viewBox="0 0 24 24" fill="none" xmlns="http://www.w3.org/2000/svg">
<g clip-path="url(#clip0_1_2890)">
<path fill-rule="evenodd" clip-rule="evenodd" d="M11.7896 4.9834C12.4996 4.9834 13.0753 5.55904 13.0753 6.26911V6.889C13.7244 7.0325 14.2977 7.37824 14.724 7.85454C14.9916 8.15354 15.2031 8.50564 15.3404 8.89425C15.5771 9.56375 15.2262 10.2983 14.5567 10.5349C13.8872 10.7716 13.1526 10.4207 12.916 9.75117C12.8925 9.68466 12.8558 9.62289 12.8079 9.56946C12.706 9.45561 12.562 9.38699 12.4003 9.38699H10.9822C10.789 9.38699 10.6325 9.54357 10.6325 9.73672C10.6325 9.90107 10.7469 10.0432 10.9075 10.0784L13.0666 10.5507C14.4984 10.8639 15.5182 12.1323 15.5182 13.597C15.5182 15.0868 14.4731 16.3337 13.0753 16.6423V17.2621C13.0753 17.9722 12.4996 18.5479 11.7896 18.5479C11.0795 18.5479 10.5039 17.9722 10.5039 17.2621V16.6423C9.4471 16.4091 8.59329 15.6399 8.23879 14.6369C8.00215 13.9674 8.35305 13.2329 9.02254 12.9962C9.69204 12.7596 10.4266 13.1105 10.6632 13.78C10.7389 13.9939 10.943 14.1441 11.1789 14.1441H12.4003C12.7015 14.1441 12.9468 13.8994 12.9468 13.597C12.9468 13.3398 12.7675 13.1175 12.5171 13.0627L10.3579 12.5904C9.01689 12.297 8.06104 11.1095 8.06104 9.73672C8.06104 8.28631 9.1181 7.0828 10.5039 6.85454V6.26911C10.5039 5.55904 11.0795 4.9834 11.7896 4.9834Z" fill="#44FDFF"/>
<path fill-rule="evenodd" clip-rule="evenodd" d="M9.56049 2.89557C12.402 2.13419 15.2898 2.75555 17.5074 4.35002L16.4633 5.39423C15.9233 5.93419 16.3057 6.85746 17.0694 6.85746H21.0001C21.4734 6.85746 21.8573 6.4737 21.8573 6.00031V2.06964C21.8573 1.30601 20.9339 0.923579 20.3939 1.46355L19.3444 2.51308C16.484 0.302116 12.6595 -0.596943 8.89497 0.411753C2.79415 2.04647 -0.941573 8.09939 0.206799 14.2063C0.338026 14.9041 1.01013 15.3635 1.70798 15.2323C2.40582 15.101 2.86516 14.4289 2.73393 13.7311C1.83213 8.93539 4.76833 4.17962 9.56049 2.89557ZM23.7939 9.7943C23.6626 9.09645 22.9906 8.63712 22.2927 8.76834C21.5948 8.89956 21.1355 9.57167 21.2667 10.2695C22.1686 15.0652 19.2323 19.821 14.4402 21.105C11.5985 21.8665 8.71062 21.2449 6.4929 19.6503L7.53688 18.6065C8.07685 18.0665 7.69442 17.1432 6.93078 17.1432H3.00011C2.52673 17.1432 2.14297 17.527 2.14297 18.0003V21.931C2.14297 22.6945 3.06623 23.077 3.60619 22.537L4.65595 21.4873C7.51638 23.6984 11.3411 24.5976 15.1057 23.5889C21.2065 21.9541 24.9423 15.9012 23.7939 9.7943Z" fill="#44FDFF"/>
</g>
<defs>
<clipPath id="clip0_1_2890">
<rect width="24" height="24" fill="white"/>
</clipPath>
</defs>
</svg>
