<svg xmlns="http://www.w3.org/2000/svg" width="46" height="46" viewBox="0 0 46 46" fill="none">
  <path d="M23.0008 26.2308C27.4615 26.2308 31.0777 22.6146 31.0777 18.1539C31.0777 13.6931 27.4615 10.0769 23.0008 10.0769C18.54 10.0769 14.9238 13.6931 14.9238 18.1539C14.9238 22.6146 18.54 26.2308 23.0008 26.2308Z" stroke="#44FDFF" stroke-width="3" stroke-linecap="round" stroke-linejoin="round"/>
  <path d="M23 44C34.5981 44 44 34.5981 44 23C44 11.402 34.5981 2 23 2C11.402 2 2 11.402 2 23C2 34.5981 11.402 44 23 44Z" stroke="#44FDFF" stroke-width="3" stroke-linecap="round" stroke-linejoin="round"/>
  <path d="M9.20508 38.8308C10.6468 36.4642 12.673 34.5083 15.089 33.1514C17.505 31.7941 20.2294 31.0812 23.0005 31.0812C25.7715 31.0812 28.496 31.7941 30.9119 33.1514C33.328 34.5083 35.354 36.4642 36.7959 38.8308" stroke="#44FDFF" stroke-width="3" stroke-linecap="round" stroke-linejoin="round"/>
</svg>